<svg width="24" height="24" viewBox="0 0 24 24" fill="none" xmlns="http://www.w3.org/2000/svg">
  <!-- Brain outline -->
  <path d="M12 2C8.5 2 6 4.5 6 8C6 8.5 6.1 9 6.2 9.5C5.5 10 5 10.7 5 11.5C5 12.3 5.5 13 6.2 13.5C6.1 14 6 14.5 6 15C6 18.5 8.5 21 12 21C15.5 21 18 18.5 18 15C18 14.5 17.9 14 17.8 13.5C18.5 13 19 12.3 19 11.5C19 10.7 18.5 10 17.8 9.5C17.9 9 18 8.5 18 8C18 4.5 15.5 2 12 2Z" stroke="currentColor" stroke-width="1.5" fill="none"/>
  
  <!-- Neural network connections -->
  <circle cx="9" cy="7" r="1" fill="currentColor"/>
  <circle cx="15" cy="7" r="1" fill="currentColor"/>
  <circle cx="12" cy="9" r="1" fill="currentColor"/>
  <circle cx="8" cy="11" r="1" fill="currentColor"/>
  <circle cx="16" cy="11" r="1" fill="currentColor"/>
  <circle cx="10" cy="13" r="1" fill="currentColor"/>
  <circle cx="14" cy="13" r="1" fill="currentColor"/>
  <circle cx="12" cy="15" r="1" fill="currentColor"/>
  
  <!-- Connection lines -->
  <line x1="9" y1="7" x2="12" y2="9" stroke="currentColor" stroke-width="0.5" opacity="0.6"/>
  <line x1="15" y1="7" x2="12" y2="9" stroke="currentColor" stroke-width="0.5" opacity="0.6"/>
  <line x1="12" y1="9" x2="8" y2="11" stroke="currentColor" stroke-width="0.5" opacity="0.6"/>
  <line x1="12" y1="9" x2="16" y2="11" stroke="currentColor" stroke-width="0.5" opacity="0.6"/>
  <line x1="8" y1="11" x2="10" y2="13" stroke="currentColor" stroke-width="0.5" opacity="0.6"/>
  <line x1="16" y1="11" x2="14" y2="13" stroke="currentColor" stroke-width="0.5" opacity="0.6"/>
  <line x1="10" y1="13" x2="12" y2="15" stroke="currentColor" stroke-width="0.5" opacity="0.6"/>
  <line x1="14" y1="13" x2="12" y2="15" stroke="currentColor" stroke-width="0.5" opacity="0.6"/>
</svg> 