<svg width="24" height="24" viewBox="0 0 24 24" fill="none" xmlns="http://www.w3.org/2000/svg">
  <!-- Main cloud shape -->
  <path d="M18.5 12C19.9 12 21 13.1 21 14.5C21 15.9 19.9 17 18.5 17H6.5C4.6 17 3 15.4 3 13.5C3 11.6 4.6 10 6.5 10C6.8 10 7.1 10.1 7.4 10.2C8.2 8.3 10 7 12 7C14.8 7 17 9.2 17 12C17.6 12 18.1 12 18.5 12Z" stroke="currentColor" stroke-width="1.5" fill="none"/>
  
  <!-- Infrastructure elements -->
  <circle cx="8" cy="13" r="0.8" fill="currentColor" opacity="0.6"/>
  <circle cx="12" cy="11.5" r="0.8" fill="currentColor" opacity="0.6"/>
  <circle cx="16" cy="13" r="0.8" fill="currentColor" opacity="0.6"/>
  
  <!-- Connection lines representing network -->
  <line x1="8" y1="13" x2="12" y2="11.5" stroke="currentColor" stroke-width="0.5" opacity="0.4"/>
  <line x1="12" y1="11.5" x2="16" y2="13" stroke="currentColor" stroke-width="0.5" opacity="0.4"/>
  
  <!-- Small data points -->
  <circle cx="10" cy="14.5" r="0.3" fill="currentColor" opacity="0.8"/>
  <circle cx="14" cy="14.5" r="0.3" fill="currentColor" opacity="0.8"/>
</svg> 